<svg width="199" height="64" viewBox="0 0 199 64" fill="none" xmlns="http://www.w3.org/2000/svg">
<path d="M49.4251 18.6154V10C49.4251 5.58172 45.8434 2 41.4251 2H18.6839C14.2656 2 10.6839 5.58172 10.6839 10V18.6154M17.4828 11.5511L5.41197 24.2908L55.4862 41.8663M55.4862 41.8663C53.764 41.4045 51.9937 42.4273 51.5322 44.1508C51.0708 45.8743 52.0928 47.6458 53.8151 48.1076C55.5373 48.5694 57.3076 47.5466 57.7691 45.8231C58.2306 44.0996 57.2085 42.3281 55.4862 41.8663ZM42.3971 11.5511L54.4679 24.2908L4.39365 41.8663M4.39365 41.8663C6.11592 41.4045 7.88618 42.4273 8.34766 44.1508C8.80914 45.8743 7.78708 47.6458 6.06481 48.1076C4.34255 48.5694 2.57229 47.5466 2.11081 45.8231C1.64933 44.0996 2.67139 42.3281 4.39365 41.8663ZM26.1541 24.1538H33.5334M29.8438 24.1538V55.5384M29.8438 55.5384C28.0607 55.5384 26.6153 56.9849 26.6153 58.7692C26.6153 60.5535 28.0607 62 29.8438 62C31.6268 62 33.0722 60.5535 33.0722 58.7692C33.0722 56.9849 31.6268 55.5384 29.8438 55.5384ZM18.5921 19.2887L25.9433 19.9323M22.2677 19.6105L15.3665 32.4738L19.5343 50.8757M19.5343 50.8757C17.7581 50.7201 16.1922 52.035 16.0368 53.8126C15.8814 55.5901 17.1953 57.1571 18.9715 57.3126C20.7478 57.4681 22.3137 56.1532 22.4691 54.3757C22.6245 52.5982 21.3105 51.0312 19.5343 50.8757ZM33.7442 19.9323L41.0954 19.2887M37.4198 19.6105L44.3209 32.4738L40.1532 50.8757M40.1532 50.8757C38.3769 51.0312 37.063 52.5982 37.2184 54.3757C37.3738 56.1532 38.9397 57.4681 40.7159 57.3126C42.4921 57.1571 43.8061 55.5901 43.6507 53.8126C43.4953 52.035 41.9294 50.7202 40.1532 50.8757Z" stroke="url(#paint0_diamond_1413_2316)" stroke-width="3"/>
<path d="M80.376 19.808L76.216 29.856L80.344 40H76.376L72.376 29.856L76.408 19.808H80.376ZM68.536 40V19.808H72.216V40H68.536ZM85.841 32.128V40H82.161V19.808H89.585C91.9103 19.808 93.073 20.864 93.073 22.976V28.96C93.073 30.7093 92.2943 31.7333 90.737 32.032L94.097 40H90.129L87.057 32.128H85.841ZM85.841 22.624V29.408H88.497C88.8383 29.408 89.073 29.3547 89.201 29.248C89.329 29.12 89.393 28.8853 89.393 28.544V23.488C89.393 23.1467 89.329 22.9227 89.201 22.816C89.073 22.688 88.8383 22.624 88.497 22.624H85.841ZM104.199 40L103.431 35.808H99.015L98.311 40H94.631L98.695 19.808H103.655L107.911 40H104.199ZM99.495 33.024H102.919L101.159 23.36L99.495 33.024ZM121.532 19.808L117.372 29.856L121.5 40H117.532L113.532 29.856L117.564 19.808H121.532ZM109.692 40V19.808H113.372V40H109.692ZM127.029 37.184H133.173V40H123.317V19.808H132.917V22.624H127.029V28.224H131.989V31.072H127.029V37.184ZM143.094 19.808H146.454V40H142.998L138.678 26.624V40H135.286V19.808H138.838L143.094 32.992V19.808Z" fill="#BA90CE"/>
<path d="M165.284 26.496H161.572V23.36C161.572 23.0187 161.508 22.7947 161.38 22.688C161.252 22.56 161.017 22.496 160.676 22.496H159.172C158.83 22.496 158.596 22.56 158.468 22.688C158.34 22.7947 158.276 23.0187 158.276 23.36V36.48C158.276 36.8213 158.34 37.056 158.468 37.184C158.596 37.2907 158.83 37.344 159.172 37.344H160.676C161.017 37.344 161.252 37.2907 161.38 37.184C161.508 37.056 161.572 36.8213 161.572 36.48V33.408H165.284V36.864C165.284 38.976 164.121 40.032 161.796 40.032H158.052C155.726 40.032 154.564 38.976 154.564 36.864V22.976C154.564 20.864 155.726 19.808 158.052 19.808H161.796C164.121 19.808 165.284 20.864 165.284 22.976V26.496ZM171.56 32.128V40H167.88V19.808H175.304C177.629 19.808 178.792 20.864 178.792 22.976V28.96C178.792 30.7093 178.013 31.7333 176.456 32.032L179.816 40H175.848L172.776 32.128H171.56ZM171.56 22.624V29.408H174.216C174.557 29.408 174.792 29.3547 174.92 29.248C175.048 29.12 175.112 28.8853 175.112 28.544V23.488C175.112 23.1467 175.048 22.9227 174.92 22.816C174.792 22.688 174.557 22.624 174.216 22.624H171.56ZM184.894 40H181.63V19.808H185.662L189.054 31.808L192.446 19.808H196.478V40H193.246V25.824L190.558 35.616H187.582L184.894 25.856V40Z" fill="#4288B5"/>
<defs>
<radialGradient id="paint0_diamond_1413_2316" cx="0" cy="0" r="1" gradientUnits="userSpaceOnUse" gradientTransform="translate(52.622 25.9411) rotate(144.56) scale(62.1337 51.3651)">
<stop stop-color="#9F5AB8"/>
<stop offset="1" stop-color="#1E99B4"/>
</radialGradient>
</defs>
</svg>
